<?xml version="1.0" standalone="no"?>
<!DOCTYPE svg PUBLIC "-//W3C//DTD SVG 20010904//EN"
 "http://www.w3.org/TR/2001/REC-SVG-20010904/DTD/svg10.dtd">
<svg version="1.0" xmlns="http://www.w3.org/2000/svg"
 width="512.000000pt" height="512.000000pt" viewBox="0 0 512.000000 512.000000"
 preserveAspectRatio="xMidYMid meet">
<metadata>
Created by potrace 1.14, written by Peter Selinger 2001-2017
</metadata>
<g transform="translate(0.000000,512.000000) scale(0.100000,-0.100000)"
fill="#000000" stroke="none">
<path d="M2290 4998 c-149 -14 -379 -64 -540 -118 -369 -123 -672 -312 -956
-595 -396 -396 -624 -861 -706 -1440 -16 -116 -16 -484 0 -600 82 -579 309
-1043 706 -1441 280 -279 590 -472 956 -594 513 -172 1057 -172 1570 0 366
122 676 315 956 594 397 398 624 861 706 1441 16 115 16 482 0 600 -80 577
-309 1043 -706 1441 -280 279 -590 472 -956 594 -327 110 -686 151 -1030 118z
m2020 -1303 l0 -285 -706 -848 -707 -847 707 -3 706 -2 0 -280 0 -280 -1150 0
-1150 0 0 284 0 284 705 846 705 846 -705 0 -705 0 0 285 0 285 1150 0 1150 0
0 -285z"/>
</g>
</svg>
