<?xml version="1.0"?>
<svg xmlns="http://www.w3.org/2000/svg" xmlns:xlink="http://www.w3.org/1999/xlink" xmlns:svgjs="http://svgjs.com/svgjs" version="1.1" width="512" height="512" x="0" y="0" viewBox="0 0 64 64" style="enable-background:new 0 0 512 512" xml:space="preserve"><g><path xmlns="http://www.w3.org/2000/svg" d="M58,15H45.554L40.848,7.47A1,1,0,0,0,40,7H24a1,1,0,0,0-.848.47L18.446,15H15V14a3,3,0,0,0-3-3H8a3,3,0,0,0-3,3v1.1A5.009,5.009,0,0,0,1,20V52a5.006,5.006,0,0,0,5,5H58a5.006,5.006,0,0,0,5-5V20A5.006,5.006,0,0,0,58,15ZM24.554,9H39.446l3.75,6H39.618L37.9,11.553A1,1,0,0,0,37,11H27a1,1,0,0,0-.895.553L24.382,15H20.8Zm12.828,6H26.618l1-2h8.764ZM8,13h4a1,1,0,0,1,1,1v1H7V14A1,1,0,0,1,8,13ZM6,17H58a3,3,0,0,1,3,3v3H42.932a16.939,16.939,0,0,0-21.864,0H3V20A3,3,0,0,1,6,17Zm26,4A15,15,0,1,1,17,36,15.017,15.017,0,0,1,32,21ZM58,55H6a3,3,0,0,1-3-3V25H19.062a17,17,0,1,0,25.876,0H61V52A3,3,0,0,1,58,55Z" fill="#ffffff" data-original="#000000" style=""/><path xmlns="http://www.w3.org/2000/svg" d="M32,49A13,13,0,1,0,19,36,13.015,13.015,0,0,0,32,49Zm0-24A11,11,0,1,1,21,36,11.013,11.013,0,0,1,32,25Z" fill="#ffffff" data-original="#000000" style=""/><path xmlns="http://www.w3.org/2000/svg" d="M26.22,38.363l5.129,4.4a1,1,0,0,0,1.3,0l5.129-4.4A6.351,6.351,0,0,0,40,33.536a4.535,4.535,0,0,0-7.743-3.207L32,30.586l-.257-.257A4.535,4.535,0,0,0,24,33.536,6.351,6.351,0,0,0,26.22,38.363ZM28.536,31a2.52,2.52,0,0,1,1.793.743l.964.964a1,1,0,0,0,1.414,0l.964-.964A2.536,2.536,0,0,1,38,33.536a4.354,4.354,0,0,1-1.522,3.309L32,40.683l-4.478-3.838A4.354,4.354,0,0,1,26,33.536,2.539,2.539,0,0,1,28.536,31Z" fill="#ffffff" data-original="#000000" style=""/><path xmlns="http://www.w3.org/2000/svg" d="M55,45a4,4,0,1,0,4,4A4,4,0,0,0,55,45Zm0,6a2,2,0,1,1,2-2A2,2,0,0,1,55,51Z" fill="#ffffff" data-original="#000000" style=""/><path xmlns="http://www.w3.org/2000/svg" d="M12,27H6a1,1,0,0,0-1,1v4a1,1,0,0,0,1,1h6a1,1,0,0,0,1-1V28A1,1,0,0,0,12,27Zm-1,4H7V29h4Z" fill="#ffffff" data-original="#000000" style=""/></g></svg>
