<?xml version="1.0"?>
<svg xmlns="http://www.w3.org/2000/svg" xmlns:xlink="http://www.w3.org/1999/xlink" xmlns:svgjs="http://svgjs.com/svgjs" version="1.1" width="512" height="512" x="0" y="0" viewBox="0 0 64 64" style="enable-background:new 0 0 512 512" xml:space="preserve" class=""><g><g xmlns="http://www.w3.org/2000/svg" id="program-code-computer-mouse-keyboard"><path d="m42.445 16.168-6 4a1 1 0 0 0 0 1.664l6 4 1.11-1.664-4.755-3.168 4.752-3.168z" fill="#ffffff" data-original="#000000" style="" class=""/><path d="m51.555 25.832 6-4a1 1 0 0 0 0-1.664l-6-4-1.11 1.664 4.755 3.168-4.752 3.168z" fill="#ffffff" data-original="#000000" style="" class=""/><path d="m41.901 20h10.198v2h-10.198z" transform="matrix(.196 -.981 .981 .196 17.19 62.969)" fill="#ffffff" data-original="#000000" style="" class=""/><path d="m41 48h-32a5 5 0 0 0 -5 5v4a5 5 0 0 0 5 5h32a5 5 0 0 0 5-5v-4a5 5 0 0 0 -5-5zm3 9a3.009 3.009 0 0 1 -3 3h-32a3.009 3.009 0 0 1 -3-3v-4a3.009 3.009 0 0 1 3-3h32a3.009 3.009 0 0 1 3 3z" fill="#ffffff" data-original="#000000" style="" class=""/><path d="m58 48.1v-2.1a3.009 3.009 0 0 0 -3-3h-6a1 1 0 0 1 -1-1v-6.05a14.979 14.979 0 0 0 -.1-29.9 4.99 4.99 0 0 0 -4.9-4.05h-36a5 5 0 0 0 -5 5v24a5 5 0 0 0 5 5h14v4h-1a3.009 3.009 0 0 0 -3 3v2a1 1 0 0 0 1 1h14a1 1 0 0 0 1-1v-2a3.009 3.009 0 0 0 -3-3h-1v-4h17v6a3.009 3.009 0 0 0 3 3h6a1 1 0 0 1 1 1v2.1a5.017 5.017 0 0 0 -4 4.9v4a5 5 0 0 0 10 0v-4a5.017 5.017 0 0 0 -4-4.9zm-54-41.1a3.009 3.009 0 0 1 3-3h36a2.989 2.989 0 0 1 2.83 2.06 15.01 15.01 0 0 0 -13.83 14.94 14.807 14.807 0 0 0 .88 5h-28.88zm26 35a1 1 0 0 1 1 1v1h-12v-1a1 1 0 0 1 1-1zm-7-2v-4h4v4zm-16-6a3.009 3.009 0 0 1 -3-3v-3h29.74a15.04 15.04 0 0 0 5.81 6zm27-13a13 13 0 1 1 13 13 13.012 13.012 0 0 1 -13-13zm26 36a3 3 0 0 1 -6 0v-4a3.01 3.01 0 0 1 2-2.82v2.82h2v-2.82a3.01 3.01 0 0 1 2 2.82z" fill="#ffffff" data-original="#000000" style="" class=""/><path d="m20 56h10v2h-10z" fill="#ffffff" data-original="#000000" style="" class=""/><path d="m12 52h2v2h-2z" fill="#ffffff" data-original="#000000" style="" class=""/><path d="m8 52h2v2h-2z" fill="#ffffff" data-original="#000000" style="" class=""/><path d="m16 52h2v2h-2z" fill="#ffffff" data-original="#000000" style="" class=""/><path d="m12 56h2v2h-2z" fill="#ffffff" data-original="#000000" style="" class=""/><path d="m8 56h2v2h-2z" fill="#ffffff" data-original="#000000" style="" class=""/><path d="m16 56h2v2h-2z" fill="#ffffff" data-original="#000000" style="" class=""/><path d="m36 56h2v2h-2z" fill="#ffffff" data-original="#000000" style="" class=""/><path d="m32 56h2v2h-2z" fill="#ffffff" data-original="#000000" style="" class=""/><path d="m40 56h2v2h-2z" fill="#ffffff" data-original="#000000" style="" class=""/><path d="m20 52h2v2h-2z" fill="#ffffff" data-original="#000000" style="" class=""/><path d="m24 52h2v2h-2z" fill="#ffffff" data-original="#000000" style="" class=""/><path d="m28 52h2v2h-2z" fill="#ffffff" data-original="#000000" style="" class=""/><path d="m32 52h2v2h-2z" fill="#ffffff" data-original="#000000" style="" class=""/><path d="m36 52h2v2h-2z" fill="#ffffff" data-original="#000000" style="" class=""/><path d="m40 52h2v2h-2z" fill="#ffffff" data-original="#000000" style="" class=""/></g></g></svg>
